<svg xmlns="http://www.w3.org/2000/svg" width="1200" height="320" viewBox="0 0 1200 320" role="img" aria-label="Lith Albarghouth profile banner">
  <defs>
    <linearGradient id="bg" x1="0" y1="0" x2="1" y2="1">
      <stop offset="0" stop-color="#00D9FF"/>
      <stop offset="0.48" stop-color="#7C3AED"/>
      <stop offset="1" stop-color="#FF3D81"/>
    </linearGradient>
    <linearGradient id="glass" x1="0" y1="0" x2="1" y2="1">
      <stop offset="0" stop-color="#FFFFFF" stop-opacity="0.18"/>
      <stop offset="1" stop-color="#FFFFFF" stop-opacity="0.04"/>
    </linearGradient>
    <filter id="shadow" x="-20%" y="-20%" width="140%" height="140%">
      <feDropShadow dx="0" dy="16" stdDeviation="18" flood-color="#020617" flood-opacity="0.35"/>
    </filter>
  </defs>

  <rect width="1200" height="320" rx="28" fill="#0D1117"/>
  <path d="M0 0H1200V210C1070 270 935 278 796 230C654 181 520 173 386 220C247 268 116 258 0 214Z" fill="url(#bg)"/>
  <circle cx="1040" cy="82" r="132" fill="#FFFFFF" opacity="0.08"/>
  <circle cx="152" cy="238" r="118" fill="#FFFFFF" opacity="0.07"/>
  <path d="M88 72H1112" stroke="#FFFFFF" stroke-opacity="0.13" stroke-width="1"/>
  <path d="M88 248H1112" stroke="#FFFFFF" stroke-opacity="0.13" stroke-width="1"/>

  <g filter="url(#shadow)">
    <rect x="78" y="64" width="1044" height="192" rx="24" fill="url(#glass)" stroke="#FFFFFF" stroke-opacity="0.18"/>
  </g>

  <text x="600" y="145" text-anchor="middle" fill="#FFFFFF" font-family="Inter, Segoe UI, Arial, sans-serif" font-size="58" font-weight="800">Lith Albarghouth</text>
  <text x="600" y="190" text-anchor="middle" fill="#E5E7EB" font-family="Inter, Segoe UI, Arial, sans-serif" font-size="24" font-weight="600">Computer Engineering | AI &amp; Computer Vision | Full-Stack Builder</text>

  <g transform="translate(365 218)">
    <rect width="146" height="32" rx="16" fill="#0D1117" opacity="0.82"/>
    <text x="73" y="21" text-anchor="middle" fill="#00D9FF" font-family="Inter, Segoe UI, Arial, sans-serif" font-size="14" font-weight="700">Python</text>
  </g>
  <g transform="translate(527 218)">
    <rect width="146" height="32" rx="16" fill="#0D1117" opacity="0.82"/>
    <text x="73" y="21" text-anchor="middle" fill="#A78BFA" font-family="Inter, Segoe UI, Arial, sans-serif" font-size="14" font-weight="700">PyTorch</text>
  </g>
  <g transform="translate(689 218)">
    <rect width="146" height="32" rx="16" fill="#0D1117" opacity="0.82"/>
    <text x="73" y="21" text-anchor="middle" fill="#FF3D81" font-family="Inter, Segoe UI, Arial, sans-serif" font-size="14" font-weight="700">Next.js</text>
  </g>
</svg>
