<svg xmlns="http://www.w3.org/2000/svg" width="520" height="155" viewBox="0 0 520 155" role="img" aria-label="wastepredictionapp repository card">
  <rect width="520" height="155" rx="14" fill="#0D1117"/>
  <rect x="1" y="1" width="518" height="153" rx="13" fill="none" stroke="#30363D"/>
  <circle cx="42" cy="42" r="14" fill="#00D9FF" opacity="0.18"/>
  <path d="M33 45c5-12 16-15 25-7M58 38l-1-9M58 38l-9-1M51 52c-5 8-16 9-23 1M28 53l2 9M28 53l9 1" stroke="#00D9FF" stroke-width="2" fill="none" stroke-linecap="round" stroke-linejoin="round"/>
  <text x="70" y="45" fill="#00D9FF" font-family="Inter, Segoe UI, Arial, sans-serif" font-size="19" font-weight="800">Smart Recycling Assistant</text>
  <text x="34" y="82" fill="#E5E7EB" font-family="Inter, Segoe UI, Arial, sans-serif" font-size="14">React Native app with YOLOv8 waste detection, FastAPI</text>
  <text x="34" y="104" fill="#E5E7EB" font-family="Inter, Segoe UI, Arial, sans-serif" font-size="14">inference, live detection, bin guidance, badges, and quizzes.</text>
  <rect x="34" y="122" width="58" height="20" rx="10" fill="#111827" stroke="#00D9FF" stroke-opacity="0.45"/>
  <text x="63" y="136" text-anchor="middle" fill="#00D9FF" font-family="Inter, Segoe UI, Arial, sans-serif" font-size="11" font-weight="700">Expo</text>
  <rect x="102" y="122" width="70" height="20" rx="10" fill="#111827" stroke="#7C3AED" stroke-opacity="0.45"/>
  <text x="137" y="136" text-anchor="middle" fill="#A78BFA" font-family="Inter, Segoe UI, Arial, sans-serif" font-size="11" font-weight="700">YOLOv8</text>
  <rect x="182" y="122" width="72" height="20" rx="10" fill="#111827" stroke="#FF3D81" stroke-opacity="0.45"/>
  <text x="218" y="136" text-anchor="middle" fill="#FF7AA8" font-family="Inter, Segoe UI, Arial, sans-serif" font-size="11" font-weight="700">FastAPI</text>
</svg>
