<svg xmlns="http://www.w3.org/2000/svg" width="520" height="190" viewBox="0 0 520 190" role="img" aria-label="Top languages and stack mix card">
  <rect width="520" height="190" rx="14" fill="#0D1117"/>
  <rect x="1" y="1" width="518" height="188" rx="13" fill="none" stroke="#30363D"/>
  <text x="28" y="38" fill="#00D9FF" font-family="Inter, Segoe UI, Arial, sans-serif" font-size="20" font-weight="800">Top Languages &amp; Stack Mix</text>
  <text x="28" y="65" fill="#E5E7EB" font-family="Inter, Segoe UI, Arial, sans-serif" font-size="13">Based on the public projects and resume stack.</text>

  <g transform="translate(28 88)">
    <rect width="464" height="14" rx="7" fill="#111827"/>
    <rect width="150" height="14" rx="7" fill="#3572A5"/>
    <rect x="150" width="130" height="14" fill="#F1E05A"/>
    <rect x="280" width="76" height="14" fill="#178600"/>
    <rect x="356" width="54" height="14" fill="#00B4AB"/>
    <rect x="410" width="36" height="14" fill="#555555"/>
    <rect x="446" width="18" height="14" rx="7" fill="#FF3D81"/>
  </g>

  <g font-family="Inter, Segoe UI, Arial, sans-serif" font-size="13" font-weight="700">
    <circle cx="36" cy="126" r="5" fill="#3572A5"/><text x="50" y="131" fill="#CBD5E1">Python</text><text x="196" y="131" fill="#94A3B8">AI, CV, NLP, APIs</text>
    <circle cx="36" cy="150" r="5" fill="#F1E05A"/><text x="50" y="155" fill="#CBD5E1">TypeScript / JavaScript</text><text x="196" y="155" fill="#94A3B8">Web, extensions, backend</text>
    <circle cx="292" cy="126" r="5" fill="#178600"/><text x="306" y="131" fill="#CBD5E1">C# / Unity</text>
    <circle cx="292" cy="150" r="5" fill="#00B4AB"/><text x="306" y="155" fill="#CBD5E1">Dart / Mobile</text>
    <circle cx="414" cy="126" r="5" fill="#555555"/><text x="428" y="131" fill="#CBD5E1">C/C++</text>
    <circle cx="414" cy="150" r="5" fill="#FF3D81"/><text x="428" y="155" fill="#CBD5E1">Other</text>
  </g>
</svg>
